<svg id="Capa_1" data-name="Capa 1" xmlns="http://www.w3.org/2000/svg" viewBox="0 0 40 40">
  <defs>
    <style>
      .cls-1 {
        fill: none;
        stroke: #222221;
        stroke-miterlimit: 10;
        stroke-width: 1.5px;
      }

      .cls-2 {
        fill: #222221;
      }
    </style>
  </defs>
  <title>Монтажная область 1</title>
  <g id="_Группа_" data-name=" Группа ">
    <path id="_Контур_" data-name=" Контур " class="cls-1" d="M20,39h0A19,19,0,0,1,1,20H1A19,19,0,0,1,20,1h0A19,19,0,0,1,39,20h0A19,19,0,0,1,20,39Z"/>
    <g id="_Группа_2" data-name=" Группа 2">
      <path id="_Составной_контур_" data-name=" Составной контур " class="cls-2" d="M20,11.42c2.78,0,3.11,0,4.21.06a5.85,5.85,0,0,1,1.94.36,3.45,3.45,0,0,1,2,2,5.85,5.85,0,0,1,.36,1.94c.05,1.1.06,1.43.06,4.21s0,3.12-.06,4.22a5.85,5.85,0,0,1-.36,1.94,3.45,3.45,0,0,1-2,2,5.85,5.85,0,0,1-1.94.36c-1.1.05-1.43.06-4.21.06s-3.12,0-4.22-.06a5.85,5.85,0,0,1-1.94-.36,3.45,3.45,0,0,1-2-2,5.85,5.85,0,0,1-.36-1.94c-.05-1.1-.06-1.43-.06-4.22s0-3.11.06-4.21a5.85,5.85,0,0,1,.36-1.94,3.45,3.45,0,0,1,2-2,5.85,5.85,0,0,1,1.94-.36c1.1-.05,1.43-.06,4.22-.06m0-1.88c-2.84,0-3.19,0-4.31.06a7.53,7.53,0,0,0-2.53.49,5.29,5.29,0,0,0-3.05,3.05,7.53,7.53,0,0,0-.49,2.53c0,1.11-.06,1.47-.06,4.3s0,3.19.06,4.3a7.59,7.59,0,0,0,.49,2.54,5.29,5.29,0,0,0,3.05,3.05,7.57,7.57,0,0,0,2.53.48c1.12,0,1.47.07,4.31.07s3.18,0,4.3-.07a7.57,7.57,0,0,0,2.53-.48,5.33,5.33,0,0,0,3-3,7.59,7.59,0,0,0,.49-2.54c0-1.11.06-1.46.06-4.3s0-3.19-.06-4.3a7.53,7.53,0,0,0-.49-2.53,5.33,5.33,0,0,0-3-3,7.41,7.41,0,0,0-2.58-.59c-1.12,0-1.47-.06-4.3-.06"/>
      <path id="_Составной_контур_2" data-name=" Составной контур 2" class="cls-2" d="M20,14.6A5.36,5.36,0,1,0,25.35,20h0A5.36,5.36,0,0,0,20,14.6m0,8.84A3.48,3.48,0,1,1,23.47,20h0A3.48,3.48,0,0,1,20,23.45h0"/>
      <path id="_Контур_2" data-name=" Контур 2" class="cls-2" d="M26.77,14.4a1.26,1.26,0,1,1-1.27-1.25h0a1.25,1.25,0,0,1,1.25,1.25"/>
    </g>
  </g>
</svg>
