<svg id="Capa_1" data-name="Capa 1" xmlns="http://www.w3.org/2000/svg" viewBox="0 0 40 40">
  <defs>
    <style>
      .cls-1 {
        fill: none;
        stroke: #222221;
        stroke-miterlimit: 10;
        stroke-width: 1.5px;
      }
    </style>
  </defs>
  <title>Монтажная область 1</title>
  <g id="_Группа_" data-name=" Группа ">
    <path id="_Прямоугольник_" data-name=" Прямоугольник " class="cls-1" d="M20,1h0A19,19,0,0,1,39,20h0A19,19,0,0,1,20,39h0A19,19,0,0,1,1,20H1A19,19,0,0,1,20,1Z"/>
  </g>
  <path d="M16.31,28l.34-5.1,9.26-8.35c.41-.37-.09-.55-.63-.22L13.85,21.57,8.91,20c-1.06-.3-1.07-1,.24-1.57L28.4,11c.88-.4,1.73.21,1.39,1.56L26.51,28c-.23,1.09-.89,1.36-1.81.85l-5-3.69-2.4,2.33A1.25,1.25,0,0,1,16.31,28Z"/>
</svg>
